TITLE ""
FILE "LR_black_phrase_B10.mp3" MP3
  TRACK 01 AUDIO
    TITLE "LR_black_phrase_B10_001"
    INDEX 01 00:00:00
  TRACK 02 AUDIO
    TITLE "LR_black_phrase_B10_002"
    INDEX 01 00:00:14
  TRACK 03 AUDIO
    TITLE "LR_black_phrase_B10_003"
    INDEX 01 00:01:37
  TRACK 04 AUDIO
    TITLE "LR_black_phrase_B10_004"
    INDEX 01 00:02:03
  TRACK 05 AUDIO
    TITLE "LR_black_phrase_B10_005"
    INDEX 01 00:04:39
  TRACK 06 AUDIO
    TITLE "LR_black_phrase_B10_006"
    INDEX 01 00:05:37
  TRACK 07 AUDIO
    TITLE "LR_black_phrase_B10_007"
    INDEX 01 00:07:40
  TRACK 08 AUDIO
    TITLE "LR_black_phrase_B10_008"
    INDEX 01 00:08:06
  TRACK 09 AUDIO
    TITLE "LR_black_phrase_B10_009"
    INDEX 01 00:10:17
  TRACK 10 AUDIO
    TITLE "LR_black_phrase_B10_010"
    INDEX 01 00:10:44
  TRACK 11 AUDIO
    TITLE "LR_black_phrase_B10_011"
    INDEX 01 00:12:55
  TRACK 12 AUDIO
    TITLE "LR_black_phrase_B10_012"
    INDEX 01 00:13:60
  TRACK 13 AUDIO
    TITLE "LR_black_phrase_B10_013"
    INDEX 01 00:15:06
  TRACK 14 AUDIO
    TITLE "LR_black_phrase_B10_014"
    INDEX 01 00:15:45
  TRACK 15 AUDIO
    TITLE "LR_black_phrase_B10_015"
    INDEX 01 00:17:73
  TRACK 16 AUDIO
    TITLE "LR_black_phrase_B10_016"
    INDEX 01 00:18:73
  TRACK 17 AUDIO
    TITLE "LR_black_phrase_B10_017"
    INDEX 01 00:20:48
  TRACK 18 AUDIO
    TITLE "LR_black_phrase_B10_018"
    INDEX 01 00:21:12
  TRACK 19 AUDIO
    TITLE "LR_black_phrase_B10_019"
    INDEX 01 00:23:19
  TRACK 20 AUDIO
    TITLE "LR_black_phrase_B10_020"
    INDEX 01 00:23:47
  TRACK 21 AUDIO
    TITLE "LR_black_phrase_B10_021"
    INDEX 01 00:25:55
  TRACK 22 AUDIO
    TITLE "LR_black_phrase_B10_022"
    INDEX 01 00:26:57
  TRACK 23 AUDIO
    TITLE "LR_black_phrase_B10_023"
    INDEX 01 00:28:01
  TRACK 24 AUDIO
    TITLE "LR_black_phrase_B10_024"
    INDEX 01 00:28:40
  TRACK 25 AUDIO
    TITLE "LR_black_phrase_B10_025"
    INDEX 01 00:31:44
  TRACK 26 AUDIO
    TITLE "LR_black_phrase_B10_026"
    INDEX 01 00:32:46
  TRACK 27 AUDIO
    TITLE "LR_black_phrase_B10_027"
    INDEX 01 00:34:05
  TRACK 28 AUDIO
    TITLE "LR_black_phrase_B10_028"
    INDEX 01 00:34:43
  TRACK 29 AUDIO
    TITLE "LR_black_phrase_B10_029"
    INDEX 01 00:36:26
  TRACK 30 AUDIO
    TITLE "LR_black_phrase_B10_030"
    INDEX 01 00:36:55
  TRACK 31 AUDIO
    TITLE "LR_black_phrase_B10_031"
    INDEX 01 00:38:38
  TRACK 32 AUDIO
    TITLE "LR_black_phrase_B10_032"
    INDEX 01 00:39:38
  TRACK 33 AUDIO
    TITLE "LR_black_phrase_B10_033"
    INDEX 01 00:40:69
  TRACK 34 AUDIO
    TITLE "LR_black_phrase_B10_034"
    INDEX 01 00:41:33
  TRACK 35 AUDIO
    TITLE "LR_black_phrase_B10_035"
    INDEX 01 00:44:45
  TRACK 36 AUDIO
    TITLE "LR_black_phrase_B10_036"
    INDEX 01 00:45:42
  TRACK 37 AUDIO
    TITLE "LR_black_phrase_B10_037"
    INDEX 01 00:47:35
  TRACK 38 AUDIO
    TITLE "LR_black_phrase_B10_038"
    INDEX 01 00:47:71
  TRACK 39 AUDIO
    TITLE "LR_black_phrase_B10_039"
    INDEX 01 00:49:68
  TRACK 40 AUDIO
    TITLE "LR_black_phrase_B10_040"
    INDEX 01 00:50:18
  TRACK 41 AUDIO
    TITLE "LR_black_phrase_B10_041"
    INDEX 01 00:52:15
  TRACK 42 AUDIO
    TITLE "LR_black_phrase_B10_042"
    INDEX 01 00:53:14
  TRACK 43 AUDIO
    TITLE "LR_black_phrase_B10_043"
    INDEX 01 00:54:41
  TRACK 44 AUDIO
    TITLE "LR_black_phrase_B10_044"
    INDEX 01 00:55:03
  TRACK 45 AUDIO
    TITLE "LR_black_phrase_B10_045"
    INDEX 01 00:56:42
  TRACK 46 AUDIO
    TITLE "LR_black_phrase_B10_046"
    INDEX 01 00:57:42
  TRACK 47 AUDIO
    TITLE "LR_black_phrase_B10_047"
    INDEX 01 01:00:46
  TRACK 48 AUDIO
    TITLE "LR_black_phrase_B10_048"
    INDEX 01 01:01:04
  TRACK 49 AUDIO
    TITLE "LR_black_phrase_B10_049"
    INDEX 01 01:03:56
  TRACK 50 AUDIO
    TITLE "LR_black_phrase_B10_050"
    INDEX 01 01:04:02
  TRACK 51 AUDIO
    TITLE "LR_black_phrase_B10_051"
    INDEX 01 01:06:54
  TRACK 52 AUDIO
    TITLE "LR_black_phrase_B10_052"
    INDEX 01 01:07:50
  TRACK 53 AUDIO
    TITLE "LR_black_phrase_B10_053"
    INDEX 01 01:08:63
  TRACK 54 AUDIO
    TITLE "LR_black_phrase_B10_054"
    INDEX 01 01:09:25
  TRACK 55 AUDIO
    TITLE "LR_black_phrase_B10_055"
    INDEX 01 01:11:18
  TRACK 56 AUDIO
    TITLE "LR_black_phrase_B10_056"
    INDEX 01 01:12:18
  TRACK 57 AUDIO
    TITLE "LR_black_phrase_B10_057"
    INDEX 01 01:14:13
  TRACK 58 AUDIO
    TITLE "LR_black_phrase_B10_058"
    INDEX 01 01:14:46
  TRACK 59 AUDIO
    TITLE "LR_black_phrase_B10_059"
    INDEX 01 01:16:47
  TRACK 60 AUDIO
    TITLE "LR_black_phrase_B10_060"
    INDEX 01 01:16:68
  TRACK 61 AUDIO
    TITLE "LR_black_phrase_B10_061"
    INDEX 01 01:18:69
  TRACK 62 AUDIO
    TITLE "LR_black_phrase_B10_062"
    INDEX 01 01:19:71
  TRACK 63 AUDIO
    TITLE "LR_black_phrase_B10_063"
    INDEX 01 01:21:15
  TRACK 64 AUDIO
    TITLE "LR_black_phrase_B10_064"
    INDEX 01 01:21:56
  TRACK 65 AUDIO
    TITLE "LR_black_phrase_B10_065"
    INDEX 01 01:23:04
  TRACK 66 AUDIO
    TITLE "LR_black_phrase_B10_066"
    INDEX 01 01:24:05
  TRACK 67 AUDIO
    TITLE "LR_black_phrase_B10_067"
    INDEX 01 01:26:49
  TRACK 68 AUDIO
    TITLE "LR_black_phrase_B10_068"
    INDEX 01 01:27:11
  TRACK 69 AUDIO
    TITLE "LR_black_phrase_B10_069"
    INDEX 01 01:29:57
  TRACK 70 AUDIO
    TITLE "LR_black_phrase_B10_070"
    INDEX 01 01:30:12
  TRACK 71 AUDIO
    TITLE "LR_black_phrase_B10_071"
    INDEX 01 01:32:58
  TRACK 72 AUDIO
    TITLE "LR_black_phrase_B10_072"
    INDEX 01 01:33:63
  TRACK 73 AUDIO
    TITLE "LR_black_phrase_B10_073"
    INDEX 01 01:35:03
  TRACK 74 AUDIO
    TITLE "LR_black_phrase_B10_074"
    INDEX 01 01:35:42
  TRACK 75 AUDIO
    TITLE "LR_black_phrase_B10_075"
    INDEX 01 01:36:63
  TRACK 76 AUDIO
    TITLE "LR_black_phrase_B10_076"
    INDEX 01 01:37:55
  TRACK 77 AUDIO
    TITLE "LR_black_phrase_B10_077"
    INDEX 01 01:39:64
  TRACK 78 AUDIO
    TITLE "LR_black_phrase_B10_078"
    INDEX 01 01:40:26
  TRACK 79 AUDIO
    TITLE "LR_black_phrase_B10_079"
    INDEX 01 01:42:31
  TRACK 80 AUDIO
    TITLE "LR_black_phrase_B10_080"
    INDEX 01 01:42:60
  TRACK 81 AUDIO
    TITLE "LR_black_phrase_B10_081"
    INDEX 01 01:44:63
  TRACK 82 AUDIO
    TITLE "LR_black_phrase_B10_082"
    INDEX 01 01:45:64
  TRACK 83 AUDIO
    TITLE "LR_black_phrase_B10_083"
    INDEX 01 01:46:69
  TRACK 84 AUDIO
    TITLE "LR_black_phrase_B10_084"
    INDEX 01 01:47:34
  TRACK 85 AUDIO
    TITLE "LR_black_phrase_B10_085"
    INDEX 01 01:48:60
  TRACK 86 AUDIO
    TITLE "LR_black_phrase_B10_086"
    INDEX 01 01:49:58
  TRACK 87 AUDIO
    TITLE "LR_black_phrase_B10_087"
    INDEX 01 01:52:23
  TRACK 88 AUDIO
    TITLE "LR_black_phrase_B10_088"
    INDEX 01 01:52:62
  TRACK 89 AUDIO
    TITLE "LR_black_phrase_B10_089"
    INDEX 01 01:55:31
  TRACK 90 AUDIO
    TITLE "LR_black_phrase_B10_090"
    INDEX 01 01:55:61
  TRACK 91 AUDIO
    TITLE "LR_black_phrase_B10_091"
    INDEX 01 01:58:30
  TRACK 92 AUDIO
    TITLE "LR_black_phrase_B10_092"
    INDEX 01 01:59:27
  TRACK 93 AUDIO
    TITLE "LR_black_phrase_B10_093"
    INDEX 01 02:00:21
  TRACK 94 AUDIO
    TITLE "LR_black_phrase_B10_094"
    INDEX 01 02:00:58
  TRACK 95 AUDIO
    TITLE "LR_black_phrase_B10_095"
    INDEX 01 02:04:16
  TRACK 96 AUDIO
    TITLE "LR_black_phrase_B10_096"
    INDEX 01 02:05:18
  TRACK 97 AUDIO
    TITLE "LR_black_phrase_B10_097"
    INDEX 01 02:08:20
  TRACK 98 AUDIO
    TITLE "LR_black_phrase_B10_098"
    INDEX 01 02:08:55
  TRACK 99 AUDIO
    TITLE "LR_black_phrase_B10_099"
    INDEX 01 02:11:18
  TRACK 100 AUDIO
    TITLE "LR_black_phrase_B10_100"
    INDEX 01 02:11:42
  TRACK 101 AUDIO
    TITLE "LR_black_phrase_B10_101"
    INDEX 01 02:14:05
  TRACK 102 AUDIO
    TITLE "LR_black_phrase_B10_102"
    INDEX 01 02:15:04
  TRACK 103 AUDIO
    TITLE "LR_black_phrase_B10_103"
    INDEX 01 02:16:10
  TRACK 104 AUDIO
    TITLE "LR_black_phrase_B10_104"
    INDEX 01 02:16:49
  TRACK 105 AUDIO
    TITLE "LR_black_phrase_B10_105"
    INDEX 01 02:17:74
  TRACK 106 AUDIO
    TITLE "LR_black_phrase_B10_106"
    INDEX 01 02:18:71
  TRACK 107 AUDIO
    TITLE "LR_black_phrase_B10_107"
    INDEX 01 02:21:17
  TRACK 108 AUDIO
    TITLE "LR_black_phrase_B10_108"
    INDEX 01 02:21:50
  TRACK 109 AUDIO
    TITLE "LR_black_phrase_B10_109"
    INDEX 01 02:23:71
  TRACK 110 AUDIO
    TITLE "LR_black_phrase_B10_110"
    INDEX 01 02:24:15
  TRACK 111 AUDIO
    TITLE "LR_black_phrase_B10_111"
    INDEX 01 02:26:36
  TRACK 112 AUDIO
    TITLE "LR_black_phrase_B10_112"
    INDEX 01 02:27:29
  TRACK 113 AUDIO
    TITLE "LR_black_phrase_B10_113"
    INDEX 01 02:28:58
  TRACK 114 AUDIO
    TITLE "LR_black_phrase_B10_114"
    INDEX 01 02:29:18
  TRACK 115 AUDIO
    TITLE "LR_black_phrase_B10_115"
    INDEX 01 02:30:35
  TRACK 116 AUDIO
    TITLE "LR_black_phrase_B10_116"
    INDEX 01 02:31:37
  TRACK 117 AUDIO
    TITLE "LR_black_phrase_B10_117"
    INDEX 01 02:33:22
  TRACK 118 AUDIO
    TITLE "LR_black_phrase_B10_118"
    INDEX 01 02:33:55
  TRACK 119 AUDIO
    TITLE "LR_black_phrase_B10_119"
    INDEX 01 02:35:64
  TRACK 120 AUDIO
    TITLE "LR_black_phrase_B10_120"
    INDEX 01 02:36:12
  TRACK 121 AUDIO
    TITLE "LR_black_phrase_B10_121"
    INDEX 01 02:38:19
  TRACK 122 AUDIO
    TITLE "LR_black_phrase_B10_122"
    INDEX 01 02:39:25
  TRACK 123 AUDIO
    TITLE "LR_black_phrase_B10_123"
    INDEX 01 02:40:44
  TRACK 124 AUDIO
    TITLE "LR_black_phrase_B10_124"
    INDEX 01 02:41:10
  TRACK 125 AUDIO
    TITLE "LR_black_phrase_B10_125"
    INDEX 01 02:43:71
  TRACK 126 AUDIO
    TITLE "LR_black_phrase_B10_126"
    INDEX 01 02:44:73
  TRACK 127 AUDIO
    TITLE "LR_black_phrase_B10_127"
    INDEX 01 02:46:34
  TRACK 128 AUDIO
    TITLE "LR_black_phrase_B10_128"
    INDEX 01 02:47:01
  TRACK 129 AUDIO
    TITLE "LR_black_phrase_B10_129"
    INDEX 01 02:48:74
  TRACK 130 AUDIO
    TITLE "LR_black_phrase_B10_130"
    INDEX 01 02:49:29
  TRACK 131 AUDIO
    TITLE "LR_black_phrase_B10_131"
    INDEX 01 02:51:30
  TRACK 132 AUDIO
    TITLE "LR_black_phrase_B10_132"
    INDEX 01 02:52:35
  TRACK 133 AUDIO
    TITLE "LR_black_phrase_B10_133"
    INDEX 01 02:53:54
  TRACK 134 AUDIO
    TITLE "LR_black_phrase_B10_134"
    INDEX 01 02:54:24
  TRACK 135 AUDIO
    TITLE "LR_black_phrase_B10_135"
    INDEX 01 02:55:41
  TRACK 136 AUDIO
    TITLE "LR_black_phrase_B10_136"
    INDEX 01 02:56:41
  TRACK 137 AUDIO
    TITLE "LR_black_phrase_B10_137"
    INDEX 01 02:59:21
  TRACK 138 AUDIO
    TITLE "LR_black_phrase_B10_138"
    INDEX 01 02:59:61
  TRACK 139 AUDIO
    TITLE "LR_black_phrase_B10_139"
    INDEX 01 03:03:00
  TRACK 140 AUDIO
    TITLE "LR_black_phrase_B10_140"
    INDEX 01 03:03:29
  TRACK 141 AUDIO
    TITLE "LR_black_phrase_B10_141"
    INDEX 01 03:06:45
  TRACK 142 AUDIO
    TITLE "LR_black_phrase_B10_142"
    INDEX 01 03:07:50
  TRACK 143 AUDIO
    TITLE "LR_black_phrase_B10_143"
    INDEX 01 03:09:08
  TRACK 144 AUDIO
    TITLE "LR_black_phrase_B10_144"
    INDEX 01 03:09:47
  TRACK 145 AUDIO
    TITLE "LR_black_phrase_B10_145"
    INDEX 01 03:12:10
  TRACK 146 AUDIO
    TITLE "LR_black_phrase_B10_146"
    INDEX 01 03:13:10
  TRACK 147 AUDIO
    TITLE "LR_black_phrase_B10_147"
    INDEX 01 03:15:03
  TRACK 148 AUDIO
    TITLE "LR_black_phrase_B10_148"
    INDEX 01 03:15:40
  TRACK 149 AUDIO
    TITLE "LR_black_phrase_B10_149"
    INDEX 01 03:17:64
  TRACK 150 AUDIO
    TITLE "LR_black_phrase_B10_150"
    INDEX 01 03:18:21
  TRACK 151 AUDIO
    TITLE "LR_black_phrase_B10_151"
    INDEX 01 03:20:45
  TRACK 152 AUDIO
    TITLE "LR_black_phrase_B10_152"
    INDEX 01 03:21:45
  TRACK 153 AUDIO
    TITLE "LR_black_phrase_B10_153"
    INDEX 01 03:22:66
  TRACK 154 AUDIO
    TITLE "LR_black_phrase_B10_154"
    INDEX 01 03:23:26
  TRACK 155 AUDIO
    TITLE "LR_black_phrase_B10_155"
    INDEX 01 03:27:47
  TRACK 156 AUDIO
    TITLE "LR_black_phrase_B10_156"
    INDEX 01 03:28:47
  TRACK 157 AUDIO
    TITLE "LR_black_phrase_B10_157"
    INDEX 01 03:31:19
  TRACK 158 AUDIO
    TITLE "LR_black_phrase_B10_158"
    INDEX 01 03:31:53
  TRACK 159 AUDIO
    TITLE "LR_black_phrase_B10_159"
    INDEX 01 03:34:45
  TRACK 160 AUDIO
    TITLE "LR_black_phrase_B10_160"
    INDEX 01 03:34:65
  TRACK 161 AUDIO
    TITLE "LR_black_phrase_B10_161"
    INDEX 01 03:37:57
  TRACK 162 AUDIO
    TITLE "LR_black_phrase_B10_162"
    INDEX 01 03:38:53
  TRACK 163 AUDIO
    TITLE "LR_black_phrase_B10_163"
    INDEX 01 03:39:62
  TRACK 164 AUDIO
    TITLE "LR_black_phrase_B10_164"
    INDEX 01 03:40:34
  TRACK 165 AUDIO
    TITLE "LR_black_phrase_B10_165"
    INDEX 01 03:43:32
  TRACK 166 AUDIO
    TITLE "LR_black_phrase_B10_166"
    INDEX 01 03:44:30
  TRACK 167 AUDIO
    TITLE "LR_black_phrase_B10_167"
    INDEX 01 03:46:66
  TRACK 168 AUDIO
    TITLE "LR_black_phrase_B10_168"
    INDEX 01 03:47:24
  TRACK 169 AUDIO
    TITLE "LR_black_phrase_B10_169"
    INDEX 01 03:49:66
  TRACK 170 AUDIO
    TITLE "LR_black_phrase_B10_170"
    INDEX 01 03:50:13
  TRACK 171 AUDIO
    TITLE "LR_black_phrase_B10_171"
    INDEX 01 03:52:53
  TRACK 172 AUDIO
    TITLE "LR_black_phrase_B10_172"
    INDEX 01 03:53:52
  TRACK 173 AUDIO
    TITLE "LR_black_phrase_B10_173"
    INDEX 01 03:54:69
  TRACK 174 AUDIO
    TITLE "LR_black_phrase_B10_174"
    INDEX 01 03:55:30
  TRACK 175 AUDIO
    TITLE "LR_black_phrase_B10_175"
    INDEX 01 03:57:64
  TRACK 176 AUDIO
    TITLE "LR_black_phrase_B10_176"
    INDEX 01 03:58:63
  TRACK 177 AUDIO
    TITLE "LR_black_phrase_B10_177"
    INDEX 01 04:01:01
  TRACK 178 AUDIO
    TITLE "LR_black_phrase_B10_178"
    INDEX 01 04:01:34
  TRACK 179 AUDIO
    TITLE "LR_black_phrase_B10_179"
    INDEX 01 04:03:66
  TRACK 180 AUDIO
    TITLE "LR_black_phrase_B10_180"
    INDEX 01 04:04:13
  TRACK 181 AUDIO
    TITLE "LR_black_phrase_B10_181"
    INDEX 01 04:06:45
  TRACK 182 AUDIO
    TITLE "LR_black_phrase_B10_182"
    INDEX 01 04:07:47
  TRACK 183 AUDIO
    TITLE "LR_black_phrase_B10_183"
    INDEX 01 04:08:60
  TRACK 184 AUDIO
    TITLE "LR_black_phrase_B10_184"
    INDEX 01 04:09:26
  TRACK 185 AUDIO
    TITLE "LR_black_phrase_B10_185"
    INDEX 01 04:11:35
  TRACK 186 AUDIO
    TITLE "LR_black_phrase_B10_186"
    INDEX 01 04:12:32
  TRACK 187 AUDIO
    TITLE "LR_black_phrase_B10_187"
    INDEX 01 04:13:73
  TRACK 188 AUDIO
    TITLE "LR_black_phrase_B10_188"
    INDEX 01 04:14:37
  TRACK 189 AUDIO
    TITLE "LR_black_phrase_B10_189"
    INDEX 01 04:16:40
  TRACK 190 AUDIO
    TITLE "LR_black_phrase_B10_190"
    INDEX 01 04:16:69
  TRACK 191 AUDIO
    TITLE "LR_black_phrase_B10_191"
    INDEX 01 04:18:72
  TRACK 192 AUDIO
    TITLE "LR_black_phrase_B10_192"
    INDEX 01 04:20:02
  TRACK 193 AUDIO
    TITLE "LR_black_phrase_B10_193"
    INDEX 01 04:21:27
  TRACK 194 AUDIO
    TITLE "LR_black_phrase_B10_194"
    INDEX 01 04:21:68
  TRACK 195 AUDIO
    TITLE "LR_black_phrase_B10_195"
    INDEX 01 04:23:04
  TRACK 196 AUDIO
    TITLE "LR_black_phrase_B10_196"
    INDEX 01 04:24:06
  TRACK 197 AUDIO
    TITLE "LR_black_phrase_B10_197"
    INDEX 01 04:26:52
  TRACK 198 AUDIO
    TITLE "LR_black_phrase_B10_198"
    INDEX 01 04:27:20
  TRACK 199 AUDIO
    TITLE "LR_black_phrase_B10_199"
    INDEX 01 04:29:64
  TRACK 200 AUDIO
    TITLE "LR_black_phrase_B10_200"
    INDEX 01 04:30:20
  TRACK 201 AUDIO
    TITLE "LR_black_phrase_B10_201"
    INDEX 01 04:32:66
  TRACK 202 AUDIO
    TITLE "LR_black_phrase_B10_202"
    INDEX 01 04:33:71
  TRACK 203 AUDIO
    TITLE "LR_black_phrase_B10_203"
    INDEX 01 04:35:15
  TRACK 204 AUDIO
    TITLE "LR_black_phrase_B10_204"
    INDEX 01 04:35:55
  TRACK 205 AUDIO
    TITLE "LR_black_phrase_B10_205"
    INDEX 01 04:38:22
  TRACK 206 AUDIO
    TITLE "LR_black_phrase_B10_206"
    INDEX 01 04:39:23
  TRACK 207 AUDIO
    TITLE "LR_black_phrase_B10_207"
    INDEX 01 04:41:18
  TRACK 208 AUDIO
    TITLE "LR_black_phrase_B10_208"
    INDEX 01 04:41:57
  TRACK 209 AUDIO
    TITLE "LR_black_phrase_B10_209"
    INDEX 01 04:43:64
  TRACK 210 AUDIO
    TITLE "LR_black_phrase_B10_210"
    INDEX 01 04:44:16
  TRACK 211 AUDIO
    TITLE "LR_black_phrase_B10_211"
    INDEX 01 04:46:23
  TRACK 212 AUDIO
    TITLE "LR_black_phrase_B10_212"
    INDEX 01 04:47:23
  TRACK 213 AUDIO
    TITLE "LR_black_phrase_B10_213"
    INDEX 01 04:48:48
  TRACK 214 AUDIO
    TITLE "LR_black_phrase_B10_214"
    INDEX 01 04:49:12
  TRACK 215 AUDIO
    TITLE "LR_black_phrase_B10_215"
    INDEX 01 04:51:09
  TRACK 216 AUDIO
    TITLE "LR_black_phrase_B10_216"
    INDEX 01 04:52:08
  TRACK 217 AUDIO
    TITLE "LR_black_phrase_B10_217"
    INDEX 01 04:54:07
  TRACK 218 AUDIO
    TITLE "LR_black_phrase_B10_218"
    INDEX 01 04:54:40
  TRACK 219 AUDIO
    TITLE "LR_black_phrase_B10_219"
    INDEX 01 04:57:35
  TRACK 220 AUDIO
    TITLE "LR_black_phrase_B10_220"
    INDEX 01 04:57:54
  TRACK 221 AUDIO
    TITLE "LR_black_phrase_B10_221"
    INDEX 01 05:00:49
  TRACK 222 AUDIO
    TITLE "LR_black_phrase_B10_222"
    INDEX 01 05:01:44
  TRACK 223 AUDIO
    TITLE "LR_black_phrase_B10_223"
    INDEX 01 05:02:48
  TRACK 224 AUDIO
    TITLE "LR_black_phrase_B10_224"
    INDEX 01 05:03:08
  TRACK 225 AUDIO
    TITLE "LR_black_phrase_B10_225"
    INDEX 01 05:04:23
  TRACK 226 AUDIO
    TITLE "LR_black_phrase_B10_226"
    INDEX 01 05:05:22
  TRACK 227 AUDIO
    TITLE "LR_black_phrase_B10_227"
    INDEX 01 05:07:08
  TRACK 228 AUDIO
    TITLE "LR_black_phrase_B10_228"
    INDEX 01 05:07:43
  TRACK 229 AUDIO
    TITLE "LR_black_phrase_B10_229"
    INDEX 01 05:09:20
  TRACK 230 AUDIO
    TITLE "LR_black_phrase_B10_230"
    INDEX 01 05:09:40
  TRACK 231 AUDIO
    TITLE "LR_black_phrase_B10_231"
    INDEX 01 05:11:17
  TRACK 232 AUDIO
    TITLE "LR_black_phrase_B10_232"
    INDEX 01 05:12:13
  TRACK 233 AUDIO
    TITLE "LR_black_phrase_B10_233"
    INDEX 01 05:13:26
  TRACK 234 AUDIO
    TITLE "LR_black_phrase_B10_234"
    INDEX 01 05:13:59
  TRACK 235 AUDIO
    TITLE "LR_black_phrase_B10_235"
    INDEX 01 05:16:24
  TRACK 236 AUDIO
    TITLE "LR_black_phrase_B10_236"
    INDEX 01 05:17:20
  TRACK 237 AUDIO
    TITLE "LR_black_phrase_B10_237"
    INDEX 01 05:19:38
  TRACK 238 AUDIO
    TITLE "LR_black_phrase_B10_238"
    INDEX 01 05:19:72
  TRACK 239 AUDIO
    TITLE "LR_black_phrase_B10_239"
    INDEX 01 05:22:03
  TRACK 240 AUDIO
    TITLE "LR_black_phrase_B10_240"
    INDEX 01 05:22:25
  TRACK 241 AUDIO
    TITLE "LR_black_phrase_B10_241"
    INDEX 01 05:24:30
  TRACK 242 AUDIO
    TITLE "LR_black_phrase_B10_242"
    INDEX 01 05:25:33
  TRACK 243 AUDIO
    TITLE "LR_black_phrase_B10_243"
    INDEX 01 05:27:20
  TRACK 244 AUDIO
    TITLE "LR_black_phrase_B10_244"
    INDEX 01 05:27:61
  TRACK 245 AUDIO
    TITLE "LR_black_phrase_B10_245"
    INDEX 01 05:29:48
  TRACK 246 AUDIO
    TITLE "LR_black_phrase_B10_246"
    INDEX 01 05:30:48
  TRACK 247 AUDIO
    TITLE "LR_black_phrase_B10_247"
    INDEX 01 05:32:25
  TRACK 248 AUDIO
    TITLE "LR_black_phrase_B10_248"
    INDEX 01 05:32:64
  TRACK 249 AUDIO
    TITLE "LR_black_phrase_B10_249"
    INDEX 01 05:35:24
  TRACK 250 AUDIO
    TITLE "LR_black_phrase_B10_250"
    INDEX 01 05:35:53
  TRACK 251 AUDIO
    TITLE "LR_black_phrase_B10_251"
    INDEX 01 05:38:10
  TRACK 252 AUDIO
    TITLE "LR_black_phrase_B10_252"
    INDEX 01 05:39:15
  TRACK 253 AUDIO
    TITLE "LR_black_phrase_B10_253"
    INDEX 01 05:40:25
  TRACK 254 AUDIO
    TITLE "LR_black_phrase_B10_254"
    INDEX 01 05:40:64
  TRACK 255 AUDIO
    TITLE "LR_black_phrase_B10_255"
    INDEX 01 05:42:71
  TRACK 256 AUDIO
    TITLE "LR_black_phrase_B10_256"
    INDEX 01 05:43:70
  TRACK 257 AUDIO
    TITLE "LR_black_phrase_B10_257"
    INDEX 01 05:46:35
  TRACK 258 AUDIO
    TITLE "LR_black_phrase_B10_258"
    INDEX 01 05:46:74
  TRACK 259 AUDIO
    TITLE "LR_black_phrase_B10_259"
    INDEX 01 05:49:43
  TRACK 260 AUDIO
    TITLE "LR_black_phrase_B10_260"
    INDEX 01 05:49:73
  TRACK 261 AUDIO
    TITLE "LR_black_phrase_B10_261"
    INDEX 01 05:52:42
  TRACK 262 AUDIO
    TITLE "LR_black_phrase_B10_262"
    INDEX 01 05:53:39
  TRACK 263 AUDIO
    TITLE "LR_black_phrase_B10_263"
    INDEX 01 05:54:52
  TRACK 264 AUDIO
    TITLE "LR_black_phrase_B10_264"
    INDEX 01 05:55:16
  TRACK 265 AUDIO
    TITLE "LR_black_phrase_B10_265"
    INDEX 01 05:57:57
  TRACK 266 AUDIO
    TITLE "LR_black_phrase_B10_266"
    INDEX 01 05:58:58
  TRACK 267 AUDIO
    TITLE "LR_black_phrase_B10_267"
    INDEX 01 06:00:53
  TRACK 268 AUDIO
    TITLE "LR_black_phrase_B10_268"
    INDEX 01 06:01:17
  TRACK 269 AUDIO
    TITLE "LR_black_phrase_B10_269"
    INDEX 01 06:03:34
  TRACK 270 AUDIO
    TITLE "LR_black_phrase_B10_270"
    INDEX 01 06:03:65
  TRACK 271 AUDIO
    TITLE "LR_black_phrase_B10_271"
    INDEX 01 06:06:06
  TRACK 272 AUDIO
    TITLE "LR_black_phrase_B10_272"
    INDEX 01 06:07:08
  TRACK 273 AUDIO
    TITLE "LR_black_phrase_B10_273"
    INDEX 01 06:08:23
  TRACK 274 AUDIO
    TITLE "LR_black_phrase_B10_274"
    INDEX 01 06:08:58
  TRACK 275 AUDIO
    TITLE "LR_black_phrase_B10_275"
    INDEX 01 06:10:26
  TRACK 276 AUDIO
    TITLE "LR_black_phrase_B10_276"
    INDEX 01 06:11:31
  TRACK 277 AUDIO
    TITLE "LR_black_phrase_B10_277"
    INDEX 01 06:13:42
  TRACK 278 AUDIO
    TITLE "LR_black_phrase_B10_278"
    INDEX 01 06:14:00
  TRACK 279 AUDIO
    TITLE "LR_black_phrase_B10_279"
    INDEX 01 06:16:01
  TRACK 280 AUDIO
    TITLE "LR_black_phrase_B10_280"
    INDEX 01 06:16:30
  TRACK 281 AUDIO
    TITLE "LR_black_phrase_B10_281"
    INDEX 01 06:18:31
  TRACK 282 AUDIO
    TITLE "LR_black_phrase_B10_282"
    INDEX 01 06:19:35
  TRACK 283 AUDIO
    TITLE "LR_black_phrase_B10_283"
    INDEX 01 06:20:40
  TRACK 284 AUDIO
    TITLE "LR_black_phrase_B10_284"
    INDEX 01 06:21:04
  TRACK 285 AUDIO
    TITLE "LR_black_phrase_B10_285"
    INDEX 01 06:23:13
  TRACK 286 AUDIO
    TITLE "LR_black_phrase_B10_286"
    INDEX 01 06:24:12
  TRACK 287 AUDIO
    TITLE "LR_black_phrase_B10_287"
    INDEX 01 06:25:45
  TRACK 288 AUDIO
    TITLE "LR_black_phrase_B10_288"
    INDEX 01 06:26:11
  TRACK 289 AUDIO
    TITLE "LR_black_phrase_B10_289"
    INDEX 01 06:27:69
  TRACK 290 AUDIO
    TITLE "LR_black_phrase_B10_290"
    INDEX 01 06:28:20
  TRACK 291 AUDIO
    TITLE "LR_black_phrase_B10_291"
    INDEX 01 06:30:05
  TRACK 292 AUDIO
    TITLE "LR_black_phrase_B10_292"
    INDEX 01 06:31:01
  TRACK 293 AUDIO
    TITLE "LR_black_phrase_B10_293"
    INDEX 01 06:32:16
  TRACK 294 AUDIO
    TITLE "LR_black_phrase_B10_294"
    INDEX 01 06:32:53
  TRACK 295 AUDIO
    TITLE "LR_black_phrase_B10_295"
    INDEX 01 06:35:20
  TRACK 296 AUDIO
    TITLE "LR_black_phrase_B10_296"
    INDEX 01 06:36:19
  TRACK 297 AUDIO
    TITLE "LR_black_phrase_B10_297"
    INDEX 01 06:38:10
  TRACK 298 AUDIO
    TITLE "LR_black_phrase_B10_298"
    INDEX 01 06:38:46
  TRACK 299 AUDIO
    TITLE "LR_black_phrase_B10_299"
    INDEX 01 06:40:60
  TRACK 300 AUDIO
    TITLE "LR_black_phrase_B10_300"
    INDEX 01 06:41:07
  TRACK 301 AUDIO
    TITLE "LR_black_phrase_B10_301"
    INDEX 01 06:43:23
